<svg xmlns="http://www.w3.org/2000/svg" xmlns:xlink="http://www.w3.org/1999/xlink" version="1.1" x="0px" y="0px" viewBox="0 0 100 100" enable-background="new 0 0 100 100" xml:space="preserve"><g><circle fill="#ffffff" cx="16.081" cy="13.685" r="9.655"></circle><path fill="#ffffff" d="M38.449,46.695c0.863,0,1.739-0.33,2.399-0.991l12.437-12.432c1.319-1.318,1.326-3.458,0.006-4.778   c-1.321-1.32-3.459-1.32-4.78,0L38.47,38.38c0,0-4.505-3.944-9.094-8.533c-1.981-1.98-4.385-3.679-7.676-3.679   c-2.75,0-12.62,0-12.62,0c-3.186,0-6.514,3.029-6.514,6.789v23.462h24.958V38.016l8.122,7.688   C36.308,46.365,37.583,46.695,38.449,46.695z"></path><polygon fill="#ffffff" points="35.088,4.236 35.088,29.36 38.101,32.542 40.382,30.269 40.382,10.286 93.542,10.286 93.542,51.126 35.088,51.126    35.088,56.419 98.834,56.419 98.834,4.236  "></polygon></g><path fill="#ffffff" d="M16.157,78.471c-4.556,0-8.247-3.693-8.247-8.244c0-4.56,3.691-8.25,8.247-8.25c4.558,0,8.249,3.692,8.249,8.25  C24.406,74.777,20.715,78.471,16.157,78.471"></path><path fill="#ffffff" d="M1.168,96.599v-6.524c0-5.257,4.319-9.533,9.586-9.533H21.03c5.265,0,9.966,4.275,9.966,9.533v6.524H1.168z"></path><path fill="#ffffff" d="M50.078,78.471c-4.556,0-8.248-3.693-8.248-8.244c0-4.56,3.691-8.25,8.248-8.25c4.558,0,8.248,3.692,8.248,8.25  C58.325,74.777,54.636,78.471,50.078,78.471"></path><path fill="#ffffff" d="M35.088,96.599v-6.524c0-5.257,4.319-9.533,9.585-9.533h10.279c5.264,0,9.963,4.275,9.963,9.533v6.524H35.088z"></path><path fill="#ffffff" d="M83.997,78.471c-4.556,0-8.246-3.693-8.246-8.244c0-4.56,3.69-8.25,8.246-8.25c4.558,0,8.249,3.692,8.249,8.25  C92.246,74.777,88.555,78.471,83.997,78.471"></path><path fill="#ffffff" d="M69.009,96.599v-6.524c0-5.257,4.319-9.533,9.586-9.533H88.87c5.267,0,9.964,4.275,9.964,9.533v6.524H69.009z"></path></svg>
