<svg xmlns="http://www.w3.org/2000/svg" xmlns:xlink="http://www.w3.org/1999/xlink" version="1.1" x="0px" y="0px" viewBox="0 0 200 200" enable-background="new 0 0 200 200" xml:space="preserve"><path fill="#ffffff" d="M40.289,9.767c0,2.934-2.378,5.313-5.313,5.313c-2.935,0-5.315-2.379-5.315-5.313  c0-2.936,2.38-5.314,5.315-5.314C37.911,4.452,40.289,6.831,40.289,9.767z M45.605,47.202c-2.936,0-5.314,2.379-5.314,5.314  c0,2.935,2.379,5.313,5.314,5.313c2.934,0,5.313-2.379,5.313-5.313C50.918,49.581,48.539,47.202,45.605,47.202z M72.173,86.78  c-2.935,0-5.315,2.379-5.315,5.313c0,2.936,2.381,5.313,5.315,5.313c2.934,0,5.313-2.378,5.313-5.313  C77.487,89.159,75.107,86.78,72.173,86.78z M90.555,97.407c-2.935,0-5.313,2.379-5.313,5.314c0,2.935,2.379,5.313,5.313,5.313  s5.313-2.379,5.313-5.313C95.868,99.786,93.489,97.407,90.555,97.407z M58.176,68.271c-2.935,0-5.314,2.38-5.314,5.314  s2.379,5.313,5.314,5.313c2.935,0,5.312-2.379,5.312-5.313S61.11,68.271,58.176,68.271z M37.348,27.256  c-2.934,0-5.313,2.38-5.313,5.314s2.379,5.313,5.313,5.313c2.936,0,5.314-2.379,5.314-5.313S40.284,27.256,37.348,27.256z   M160.142,9.767c0,2.934,2.378,5.313,5.312,5.313c2.936,0,5.314-2.379,5.314-5.313c0-2.936-2.379-5.314-5.314-5.314  C162.52,4.452,160.142,6.831,160.142,9.767z M149.512,52.516c0,2.935,2.38,5.313,5.313,5.313c2.936,0,5.314-2.379,5.314-5.313  c0-2.935-2.379-5.314-5.314-5.314C151.892,47.202,149.512,49.581,149.512,52.516z M122.944,92.094c0,2.936,2.379,5.313,5.313,5.313  c2.934,0,5.313-2.378,5.313-5.313c0-2.935-2.38-5.313-5.313-5.313C125.323,86.78,122.944,89.159,122.944,92.094z M104.562,102.722  c0,2.935,2.378,5.313,5.313,5.313c2.934,0,5.313-2.379,5.313-5.313c0-2.936-2.38-5.314-5.313-5.314  C106.94,97.407,104.562,99.786,104.562,102.722z M136.941,73.585c0,2.935,2.379,5.313,5.313,5.313s5.313-2.379,5.313-5.313  s-2.379-5.314-5.313-5.314S136.941,70.65,136.941,73.585z M157.768,32.571c0,2.935,2.379,5.313,5.314,5.313  c2.935,0,5.313-2.379,5.313-5.313s-2.379-5.314-5.313-5.314C160.146,27.256,157.768,29.636,157.768,32.571z M129.225,155.333  c0,0-29.009,30.563-29.009,40.215c0-9.651-29.01-40.215-29.01-40.215c0,0,29.009-30.562,29.009-40.214  C100.215,124.771,129.225,155.333,129.225,155.333z M104.562,155.333c0-2.4-1.946-4.347-4.348-4.347c-2.4,0-4.347,1.946-4.347,4.347  s1.946,4.347,4.347,4.347C102.616,159.68,104.562,157.733,104.562,155.333z"></path></svg>
