<?xml version="1.0" encoding="utf-8"?>
<!-- Generator: Adobe Illustrator 15.1.0, SVG Export Plug-In . SVG Version: 6.00 Build 0)  -->
<!DOCTYPE svg PUBLIC "-//W3C//DTD SVG 1.1//EN" "http://www.w3.org/Graphics/SVG/1.1/DTD/svg11.dtd">
<svg version="1.1" id="Ebene_1" xmlns="http://www.w3.org/2000/svg" xmlns:xlink="http://www.w3.org/1999/xlink" x="0px" y="0px"
	 width="512.536px" height="512.634px" viewBox="0 0 512.536 512.634" enable-background="new 0 0 512.536 512.634"
	 xml:space="preserve">
<circle opacity="0.8" fill-rule="evenodd" clip-rule="evenodd" fill="#FFFFFF" cx="256.695" cy="256.369" r="230.435"/>
<g id="glPDfs_1_" opacity="0.8">
	<g>
		<path fill-rule="evenodd" clip-rule="evenodd" fill="#775D3C" d="M393.378,116.08c0.602,0,1.203,0,1.805,0
			c1.648,1.29,3.929-0.659,5.056,0.722c1.971,2.417-1.464,11.522,0,14.804c-2.291-0.237-5.531,0.477-7.222-0.361
			C393.247,126.299,392.551,120.429,393.378,116.08z"/>
		<path fill-rule="evenodd" clip-rule="evenodd" fill="#775D3C" d="M112.106,116.802c1.806,0,3.611,0,5.416,0
			c27.64,33.14,53.874,67.688,81.24,101.099c0-33.579,0-67.158,0-100.737c2.768,0,5.536,0,8.304,0c0,38.273,0,76.545,0,114.819
			c-1.871-0.551-4.923,0.707-7.221,0c-2.9-0.892-7.371-8.863-10.11-12.276c-22.952-28.603-47.018-58.723-69.686-86.656
			c0,32.978,0,65.955,0,98.933c-2.768,0-5.536,0-8.305,0c0-38.032,0-76.065,0-114.097
			C111.714,117.373,111.686,116.863,112.106,116.802z"/>
		<path fill-rule="evenodd" clip-rule="evenodd" fill="#775D3C" d="M246.785,116.802c24.913,0,49.827,0,74.741,0
			c0,2.528,0,5.055,0,7.583c-22.146,0-44.291,0-66.437,0c-0.843,14.323-0.12,30.209-0.361,45.133c19.497,0,38.995,0,58.493,0
			c0,2.407,0,4.814,0,7.222c-19.498,0-38.996,0-58.493,0c0,15.767,0,31.533,0,47.3c22.025,0.842,45.615,0.12,68.242,0.361
			c0,2.527,0,5.055,0,7.582c-25.516,0-51.03,0-76.547,0c0-38.032,0-76.065,0-114.097
			C246.393,117.373,246.364,116.863,246.785,116.802z"/>
		<path fill-rule="evenodd" clip-rule="evenodd" fill="#775D3C" d="M353.661,117.164c2.647,0,5.295,0,7.943,0
			c0,38.273,0,76.545,0,114.819c-2.888,0-5.776,0-8.665,0c0.306-30.133,0.446-73.126,0.36-113.736
			C353.269,117.734,353.24,117.224,353.661,117.164z"/>
		<path fill-rule="evenodd" clip-rule="evenodd" fill="#775D3C" d="M112.106,246.425c96.043,0,192.09,0,288.132,0
			c0,3.13,0,6.259,0,9.388c-96.166,0-192.325,0-288.494,0c0-2.768,0-5.536,0-8.305C111.714,246.997,111.686,246.487,112.106,246.425
			z"/>
		<path fill-rule="evenodd" clip-rule="evenodd" fill="#775D3C" d="M400.599,334.525c0,20.822,0,41.645,0,62.465
			c-4.693,0-9.388,0-14.081,0c-1.426-4.23-2.497-8.816-4.333-12.637c-2.261,5.871-5.043,9.832-10.11,12.277
			c-10.965,5.291-28.095-1.404-33.94-7.945c-10.276-11.498-9.749-31.27-9.749-53.799c0-19.014-0.482-38.369,6.5-49.826
			c5.83-9.566,17.027-15.166,30.329-15.166c22.052,0,35.617,16.16,33.94,41.884c-6.018,0-12.035,0-18.053,0
			c-0.287-10.201,0.105-17.762-4.333-22.748c-5.148-5.783-18.252-5.447-23.83-0.361c-7.742,7.061-6.5,25.117-6.5,41.885
			c0,22.359-2.503,47.318,12.277,51.994c20.472,6.477,24.729-15.744,23.469-34.662c-5.906-0.232-12.746,0.469-18.054-0.363
			c0.138-3.043-0.276-10.814,0.361-13.357C376.411,334.404,389.283,333.688,400.599,334.525z"/>
		<path fill-rule="evenodd" clip-rule="evenodd" fill="#775D3C" d="M112.106,271.339c22.876,0.692,47.946-3.577,57.771,10.833
			c7.434,10.902,5.777,32.539,5.777,50.549c0,19.229,1.56,37.586-5.416,50.188c-9.625,17.389-32.986,13.945-58.493,14.082
			c0-41.521,0-83.045,0-124.568C111.714,271.91,111.686,271.4,112.106,271.339z M129.799,285.781c0,32.617,0,65.232,0,97.85
			c6.673-0.133,15.53,0.557,20.22-2.166c7.925-4.602,7.01-16.27,7.221-28.162c0.08-4.504,0.361-12.717,0.361-19.498
			c0-13.662,2.195-37.246-3.972-44.412c-4.379-5.088-14.998-4.729-23.469-4.693C129.739,284.76,129.768,285.27,129.799,285.781z"/>
		<path fill-rule="evenodd" clip-rule="evenodd" fill="#775D3C" d="M198.401,271.339c5.897,0,11.795,0,17.693,0
			c-0.002,41.647,0.002,85.208,0,125.651c-6.018,0-12.036,0-18.054,0c-0.02-41.316,0.028-85.551,0-124.568
			C198.009,271.91,197.981,271.4,198.401,271.339z"/>
		<path fill-rule="evenodd" clip-rule="evenodd" fill="#775D3C" d="M243.174,271.339c4.453,0,8.906,0,13.359,0
			c9.837,26.03,20.801,50.93,30.69,76.907c0.843-24.912,0.121-51.393,0.361-76.907c6.018,0,12.035,0,18.053,0
			c0,41.883,0,83.768,0,125.651c-4.333,0-8.665,0-12.998,0c-10.358-27.553-21.151-54.672-31.413-82.322
			c-0.842,26.719-0.12,55.002-0.36,82.322c-6.019,0-12.036,0-18.054,0c-0.166-37.086,0.058-79.377,0-124.568
			C242.782,271.91,242.753,271.4,243.174,271.339z"/>
	</g>
</g>
<path opacity="0.8" fill-rule="evenodd" clip-rule="evenodd" fill="#FFFFFF" d="M256.297,0C114.716,0-0.058,114.774-0.058,256.354
	c0,141.581,114.774,256.355,256.355,256.355s256.355-114.774,256.355-256.355C512.653,114.774,397.878,0,256.297,0z
	 M256.078,494.224c-131.493,0-238.089-106.597-238.089-238.089S124.585,18.046,256.078,18.046
	c131.493,0,238.087,106.596,238.087,238.088S387.571,494.224,256.078,494.224z"/>
</svg>
