<?xml version="1.0" encoding="utf-8"?>
<!-- Generator: Adobe Illustrator 15.1.0, SVG Export Plug-In . SVG Version: 6.00 Build 0)  -->
<!DOCTYPE svg PUBLIC "-//W3C//DTD SVG 1.1//EN" "http://www.w3.org/Graphics/SVG/1.1/DTD/svg11.dtd">
<svg version="1.1" id="Ebene_1" xmlns="http://www.w3.org/2000/svg" xmlns:xlink="http://www.w3.org/1999/xlink" x="0px" y="0px"
	 width="800px" height="600px" viewBox="0 0 800 600" enable-background="new 0 0 800 600" xml:space="preserve">
<path fill="#FFFFFF" d="M2369.2,273L2227,300.6l36.6,20.4c-16.199,28.2-25.199,44.4-27,50.4c-6.6,19.8-4.8,38.399,5.4,55.8
	c10.8,18,25.2,30,43.2,34.8c9,1.8,27.6,3,56.399,3l46.2-78l30.601,19.2L2369.2,273z"/>
<g>
	<path fill="#FFFFFF" d="M2579.2,479.4h-77.4l0,0h-3.6h-3.601l0,0L2305,480c-14.4,0-27.6-3-39.6-9l73.199,126.6
		c9.601,16.2,23.4,24.601,42.601,24.601l117.6-0.601h5.4c18.6,0,33-8.399,42-24.6l72.6-126.6
		C2606.8,476.4,2593.6,479.4,2579.2,479.4z"/>
</g>
<path d="M2523.4,586.8l25.8-16.2l39.6,66.601c24.601,0,40.8-0.601,48.601-2.4c15.6-4.2,28.199-13.8,37.199-30
	c8.4-15,10.2-30.6,4.801-48c-1.801-4.8-9-19.2-22.801-43.2L2688.4,496.2L2566,473.4L2523.4,586.8z"/>
<g>
	<path d="M2386,649.8h66l0,0h3h3l0,0l162,0.601c12,0,23.4-2.4,34.2-7.2l-63,108c-8.4,13.8-20.4,21-36,21H2455h-4.2
		c-16.2,0-28.2-7.2-36-21L2352.4,642.6C2362.6,647.4,2374,649.8,2386,649.8z"/>
</g>
<g>
	<path fill="#FFFFFF" d="M319.6,277.2L319,300.6l55.8-70.2L313,160.8l0.6,27.6c-15.6-0.6-24-0.6-24.6-0.6c-8.4,0.6-15.6,3-22.2,7.2
		c-8.4,4.8-18.6,18.6-31.2,40.2c-9.6,16.2-18.6,32.4-27.6,48.6c9.6-4.2,28.8-6.6,57-7.2C283,277.2,301.6,277.2,319.6,277.2z"/>
	<path fill="#FFFFFF" d="M206.8,296.4c-8.4,4.8-14.4,13.8-18,25.8c-4.2,12-3.6,22.2,1.2,30l40.2,65.399L307,370.2l-49.8-81.6
		C232,288,215.8,291,206.8,296.4z"/>
	<path fill="#FFFFFF" d="M504.4,172.8c14.399,24.6,22.199,42,24,52.8c9-16.2,18-32.4,27-49.2c12-22.2,18-38.4,18-48
		c0-7.8-1.801-15.6-6-22.8c-0.601-0.6-4.801-7.8-13.2-21l24-13.8L487,54l-31.2,84.6l19.8-12.6C485.2,141.6,494.8,157.2,504.4,172.8z
		"/>
	<path fill="#FFFFFF" d="M499,185.4h-95.4v90h76.2c9,0,18-4.8,26.4-14.4c8.399-9.6,12.6-19.2,12.6-28.8
		C518.8,222,512.2,206.4,499,185.4z"/>
	<path fill="#FFFFFF" d="M523.6,459.6L444.4,417L398.8,501l6,9.6c21,34.2,45.601,43.2,72.601,26.4c6.6-4.2,15-16.2,25.8-36
		C509.8,487.2,516.4,473.4,523.6,459.6z"/>
	<path fill="#FFFFFF" d="M376,483c-8.4-13.8-15-24-19.2-31.2l21-11.399L289,427.8L259.6,516l23.4-14.4l13.2,23.4
		c7.2,12.6,25.8,19.8,55.8,21c22.2,0,44.4,0,66.6-0.6c-7.199-5.4-15-15.601-24.6-31.2C391,507.6,384.4,496.8,376,483z"/>
</g>
</svg>
